<svg width="7" height="9" viewBox="0 0 7 9" fill="none" xmlns="http://www.w3.org/2000/svg">
<path d="M3.90395 0.433627C3.77952 0.236317 3.51826 0.236317 3.39384 0.433627L0.781251 4.58752C0.742924 4.64867 0.718932 4.72233 0.712028 4.80004C0.705125 4.87775 0.715591 4.95636 0.742224 5.02684C0.768857 5.09733 0.810578 5.15683 0.862597 5.19852C0.914615 5.24021 0.974822 5.2624 1.03631 5.26253H2.3426V8.17026C2.3426 8.28042 2.37701 8.38608 2.43825 8.46398C2.49949 8.54188 2.58256 8.58564 2.66917 8.58564H4.62861C4.71522 8.58564 4.79829 8.54188 4.85953 8.46398C4.92078 8.38608 4.95519 8.28042 4.95519 8.17026V5.26253H6.26148C6.32296 5.2624 6.38317 5.24021 6.43519 5.19852C6.48721 5.15683 6.52893 5.09733 6.55556 5.02684C6.58219 4.95636 6.59266 4.87775 6.58576 4.80004C6.57885 4.72233 6.55486 4.64867 6.51653 4.58752L3.90395 0.433627V0.433627ZM4.62861 4.43175H4.30204V7.75487H2.99575V4.43175H1.7159L3.64889 1.35828L5.58188 4.43175H4.62861Z" fill="#5380EA"/>
</svg>
